<?xml version="1.0" encoding="UTF-8" standalone="no"?>
<svg xmlns:dc="http://purl.org/dc/elements/1.1/" xmlns:cc="http://creativecommons.org/ns#" xmlns:rdf="http://www.w3.org/1999/02/22-rdf-syntax-ns#" xmlns:svg="http://www.w3.org/2000/svg" xmlns="http://www.w3.org/2000/svg" xmlns:sodipodi="http://sodipodi.sourceforge.net/DTD/sodipodi-0.dtd" xmlns:inkscape="http://www.inkscape.org/namespaces/inkscape" width="900" height="600" id="svg2611" sodipodi:version="0.32" inkscape:version="0.46" sodipodi:docname="flag.normania.svg" inkscape:output_extension="org.inkscape.output.svg.inkscape" version="1.0" inkscape:export-filename="/home/volodymyr/Desktop/airsoft/!Actions/!Silvania-Normania/flags/flag.normania.png" inkscape:export-xdpi="90" inkscape:export-ydpi="90">
  <metadata id="metadata2738">
    <rdf:RDF>
      <cc:Work rdf:about="">
        <dc:format>image/svg+xml</dc:format>
        <dc:type rdf:resource="http://purl.org/dc/dcmitype/StillImage"/>
      </cc:Work>
    </rdf:RDF>
  </metadata>
  <sodipodi:namedview inkscape:window-height="725" inkscape:window-width="1272" inkscape:pageshadow="2" inkscape:pageopacity="0.0" guidetolerance="10.0" gridtolerance="10.0" objecttolerance="10.0" borderopacity="1.0" bordercolor="#666666" pagecolor="#ffffff" id="base" showgrid="false" inkscape:snap-guide="true" inkscape:zoom="0.86166667" inkscape:cx="450" inkscape:cy="300" inkscape:window-x="2" inkscape:window-y="47" inkscape:current-layer="svg2611"/>
  <defs id="defs2613">
    <inkscape:perspective sodipodi:type="inkscape:persp3d" inkscape:vp_x="0 : 427.19199 : 1" inkscape:vp_y="0 : 1000 : 0" inkscape:vp_z="1207.86 : 427.19199 : 1" inkscape:persp3d-origin="603.92999 : 284.79466 : 1" id="perspective2740"/>
    <marker id="ArrowEnd" viewBox="0 0 10 10" refX="0" refY="5" markerUnits="strokeWidth" markerWidth="4" markerHeight="3" orient="auto">
      <path d="M 0,0 L 10,5 L 0,10 L 0,0 z" id="path2616"/>
    </marker>
    <marker id="ArrowStart" viewBox="0 0 10 10" refX="10" refY="5" markerUnits="strokeWidth" markerWidth="4" markerHeight="3" orient="auto">
      <path d="M 10,0 L 0,5 L 10,10 L 10,0 z" id="path2619"/>
    </marker>
  </defs>
  <path id="path2691" d="M -0.0001709114,1.3300865e-05 L 900.00045,1.3300865e-05 L 900.00045,299.99971 L -0.0001709114,299.99971 L -0.0001709114,1.3300865e-05 L -0.0001709114,1.3300865e-05 z" style="fill:#ff0000;stroke:none;stroke-width:0.01025664"/>
  <path id="path2693" d="M -0.00017091484,300.00015 L 900.00045,300.00015 L 900.00045,599.99985 L -0.00017091484,599.99985 L -0.00017091484,300.00015 L -0.00017091484,300.00015 z" style="fill:#00ff00;stroke:none;stroke-width:0.01025664"/>
  <path style="fill:#000000;stroke:#000000;stroke-width:0.1430843" d="M 271.34375 213.375 L 271.34375 302.21875 L 271.34375 386.75 C 271.46428 387.41102 272.32825 387.66131 273.65625 387.25 C 290.19633 383.19513 296.87126 374.28576 296.9375 362.15625 L 296.5625 239.0625 L 398.0625 239.0625 L 408.5625 213.375 L 271.34375 213.375 z " id="path3197"/>
  <path style="fill:#000000;stroke:#000000;stroke-width:0.1430843" d="M 307.22303,359.14506 C 305.76389,359.11261 304.78891,358.88079 304.67897,358.29726 L 304.67897,246.61472 L 398.07086,246.61472 L 398.06225,272.29448 L 329.63213,272.29448 C 329.63213,294.34062 329.63213,316.38609 329.63213,338.43223 C 326.65357,350.18089 318.35439,357.42893 307.22303,359.14506 z" id="path3193"/>
  <path style="fill:#000000;stroke:#000000;stroke-width:0.1430843" d="M 398.07086,305.48456 L 363.18187,305.48456 L 363.18187,311.18271 C 359.77609,323.19897 349.82503,332.1936 338.36382,331.70214 C 337.99158,331.68956 337.68227,331.57829 337.70214,330.78082 L 337.70214,280.41019 L 398.07086,280.41019 L 398.05232,305.5455" id="path2699"/>
  <path style="fill:#000000;stroke:#000000;stroke-width:0.1430843" d="M 450.08213,256.61943 C 456.18895,256.65652 462.26132,252.63543 464.25696,244.78201 C 467.2554,258.52964 483.87031,261.59629 491.14815,247.68441 L 491.14815,300.50241 C 474.33122,287.7536 460.96644,290.15592 449.98211,302.92526 C 438.99846,290.15592 425.63367,287.7536 408.81608,300.50241 L 408.81608,247.68441 C 416.09458,261.59629 432.7095,258.52964 435.70727,244.78201 C 437.71351,252.67716 443.94352,256.76912 450.08213,256.61943 z" id="path2701"/>
  <path style="fill:#000000;stroke:#000000;stroke-width:0.1430843" d="M 454.08203,362.76345 L 488.12322,362.76345 L 488.12322,317.21866 C 484.73467,299.24064 458.3568,297.08073 454.08004,317.21866 L 454.08203,362.76345 z" id="path2703"/>
  <path style="fill:#000000;stroke:#000000;stroke-width:0.1430843" d="M 411.86883,362.76345 L 445.91002,362.76345 L 445.91002,317.21866 C 442.52147,299.24064 416.14293,297.08073 411.86684,317.21866 L 411.86883,362.76345 z" id="path2705"/>
  <path style="fill:#000000;stroke:#000000;stroke-width:0.1430843" d="M 497.21324,368.33576 L 403.4491,368.33576 L 392.06804,384.56717 C 391.14936,386.30053 390.80627,388.08223 390.85661,389.89639 C 391.38913,394.95339 393.71595,397.45639 397.1555,398.37573 C 405.99913,399.61829 410.60176,396.9338 414.8401,390.19975 C 416.19393,389.01746 417.43451,389.14066 418.42802,390.19842 C 422.88494,397.75909 427.34252,400.9092 431.79877,401.041 C 440.20525,401.0357 443.12751,397.55111 447.41487,390.4117 C 449.3615,388.88433 451.30879,388.97706 453.25542,390.4117 C 457.53152,397.55111 460.45378,401.0357 468.86026,401.041 C 473.31717,400.9092 477.77409,397.75909 482.23167,390.19842 C 483.22452,389.14066 484.46509,389.01746 485.81893,390.19975 C 490.05727,396.9338 494.6599,399.61829 503.50352,398.37573 C 506.94308,397.45639 509.2699,394.95339 509.80242,389.89639 C 509.85276,388.08223 509.50966,386.30053 508.59099,384.56717 L 497.21324,368.33576 z" id="path2707"/>
  <path style="fill:#000000;stroke:#000000;stroke-width:0.1430843" d="M 463.894,410.48868 C 471.60568,413.03275 478.34901,411.37689 484.12266,405.52243 L 501.80792,436.77449 C 503.58433,444.52657 500.83891,450.17968 493.57101,453.73249 C 484.44589,456.27656 477.90457,453.65169 473.94773,445.85921 L 463.894,410.48868 z" id="path2709"/>
  <path style="fill:#000000;stroke:#000000;stroke-width:0.1430843" d="M 436.70277,410.48868 C 428.99043,413.03275 422.24776,411.37689 416.47411,405.52243 L 398.78885,436.77449 C 397.01244,444.52657 399.75786,450.17968 407.02576,453.73249 C 416.15088,456.27656 422.69153,453.65169 426.64904,445.85921 L 436.70277,410.48868 z" id="path2711"/>
  <path style="fill:#000000;stroke:#000000;stroke-width:0.1430843" d="M 494.2976,407.82407 C 504.71495,411.37689 513.03267,408.46986 519.2501,399.10232 L 542.87063,433.988 C 543.74625,442.05602 542.52025,448.28868 537.4202,450.70426 C 530.65435,453.88881 524.40049,453.41457 518.76593,448.52382 L 494.2976,407.82407 z" id="path2713"/>
  <path style="fill:#000000;stroke:#000000;stroke-width:0.1430843" d="M 406.29851,407.82407 C 395.88182,411.37689 387.56409,408.46986 381.346,399.10232 L 357.72547,433.988 C 356.84985,442.05602 358.07585,448.28868 363.17591,450.70426 C 369.94176,453.88881 376.19561,453.41457 381.83018,448.52382 L 406.29851,407.82407 z" id="path2715"/>
  <path style="fill:#000000;stroke:#000000;stroke-width:0.1430843" d="M 450.04769,453.36953 C 459.42781,453.36953 462.7912,447.87869 462.24476,442.22492 L 456.4307,408.06649 C 455.53852,404.31895 452.69243,402.25177 450.04769,402.25177 C 447.40295,402.25177 444.55685,404.31895 443.66467,408.06649 L 437.85061,442.22492 C 437.30484,447.87869 440.66823,453.36953 450.04769,453.36953 z" id="path2717"/>
  <path style="fill:#000000;stroke:#000000;stroke-width:0.1430843" d="M 440.86831,145.32837 C 435.14168,146.32056 430.76402,149.48693 428.02456,155.26587 L 410.99331,235.57837 C 417.90488,249.73068 424.78092,246.17752 431.61831,237.73462 C 438.45503,229.29304 444.27299,244.88431 450.08706,244.73462 C 455.87065,244.77171 461.54937,229.27648 468.33706,237.73462 C 475.12411,246.19342 482.06971,249.74092 488.96206,235.82837 L 472.02456,175.01587 C 490.16154,174.02169 504.7403,177.11154 514.14956,189.35962 C 515.06227,189.23576 515.91543,188.78924 516.58706,187.60962 L 503.14956,160.35962 C 500.4611,157.3029 497.27355,155.3202 493.21206,155.26587 L 469.21206,155.26587 C 466.7031,149.97175 462.25723,146.34839 456.36831,145.32837 L 440.86831,145.32837 z M 453.64956,158.42212 C 457.89716,158.42212 461.33706,160.50317 461.33706,163.07837 C 461.33705,165.65357 457.89717,167.73462 453.64956,167.73462 C 449.40259,167.73462 445.96206,165.65356 445.96206,163.07837 C 445.96205,160.50318 449.4026,158.42212 453.64956,158.42212 z" id="path4238"/>
  <path style="fill:#000000;stroke:#000000;stroke-width:0.1430843" d="M 491.4375 213.21875 L 501.9375 238.9375 L 603.4375 238.9375 L 603.0625 362.03125 C 603.12807 374.16143 609.80368 383.07013 626.34375 387.125 C 627.67242 387.53698 628.53571 387.28601 628.65625 386.625 L 628.65625 302.0625 L 628.65625 213.21875 L 491.4375 213.21875 z " id="path3206"/>
  <path style="fill:#000000;stroke:#000000;stroke-width:0.1430843" d="M 592.77697,359.00862 C 594.23611,358.9755 595.21042,358.74368 595.32037,358.16082 L 595.32037,246.47828 L 501.92913,246.47828 L 501.93774,272.15804 L 570.36786,272.15804 C 570.36786,294.20351 570.36786,316.24965 570.36786,338.29512 C 573.34577,350.04379 581.64494,357.29182 592.77697,359.00862 z" id="path3202"/>
  <path style="fill:#000000;stroke:#000000;stroke-width:0.1430843" d="M 501.92913,305.34746 L 536.81747,305.34746 L 536.81747,311.04627 C 540.2239,323.06186 550.17431,332.05716 561.63618,331.5657 C 562.00841,331.55312 562.31707,331.44184 562.2972,330.64438 L 562.2972,280.27374 L 501.92913,280.27374 L 501.94768,305.40839" id="path2721"/>
</svg>