<?xml version="1.0" encoding="UTF-8" standalone="no"?>
<!-- Created with Inkscape (http://www.inkscape.org/) -->

<svg
   xmlns:dc="http://purl.org/dc/elements/1.1/"
   xmlns:cc="http://creativecommons.org/ns#"
   xmlns:rdf="http://www.w3.org/1999/02/22-rdf-syntax-ns#"
   xmlns:svg="http://www.w3.org/2000/svg"
   xmlns="http://www.w3.org/2000/svg"
   xmlns:sodipodi="http://sodipodi.sourceforge.net/DTD/sodipodi-0.dtd"
   xmlns:inkscape="http://www.inkscape.org/namespaces/inkscape"
   width="1000mm"
   height="300mm"
   viewBox="0 0 1000 300"
   version="1.1"
   id="svg8"
   sodipodi:docname="war.svg"
   inkscape:version="0.92.3 (2405546, 2018-03-11)">
  <defs
     id="defs2" />
  <sodipodi:namedview
     id="base"
     pagecolor="#ffffff"
     bordercolor="#666666"
     borderopacity="1.0"
     inkscape:pageopacity="0.0"
     inkscape:pageshadow="2"
     inkscape:zoom="0.24748737"
     inkscape:cx="2360.6639"
     inkscape:cy="170.12617"
     inkscape:document-units="mm"
     inkscape:current-layer="layer1"
     showgrid="false"
     height="50mm"
     inkscape:window-width="1920"
     inkscape:window-height="1019"
     inkscape:window-x="1920"
     inkscape:window-y="0"
     inkscape:window-maximized="1" />
  <metadata
     id="metadata5">
    <rdf:RDF>
      <cc:Work
         rdf:about="">
        <dc:format>image/svg+xml</dc:format>
        <dc:type
           rdf:resource="http://purl.org/dc/dcmitype/StillImage" />
        <dc:title></dc:title>
      </cc:Work>
    </rdf:RDF>
  </metadata>
  <g
     inkscape:label="Layer 1"
     inkscape:groupmode="layer"
     id="layer1"
     transform="translate(0,3)">
    <path
       inkscape:connector-curvature="0"
       style="fill:#0000ff;stroke:none;stroke-width:0.00559368"
       d="M 0.37789904,-4.537378 H 527.11267 V 300.38442 H 0.37789904 Z"
       id="path2725" />
    <path
       inkscape:connector-curvature="0"
       id="path2729"
       d="M 527.1124,82.459832 331.19988,82.459908 263.74594,34.22339 197.0379,82.460257 H 0.37798784 V 206.49642 H 187.47723 l 76.26871,55.12724 76.2687,-55.12758 H 527.1124 Z"
       style="fill:#ffff00;stroke:none;stroke-width:0.00512088"
       sodipodi:nodetypes="ccccccccccc" />
    <path
       inkscape:connector-curvature="0"
       id="path2731"
       d="M 121.69502,147.92337 263.7452,45.249029 405.79541,147.92337 263.7452,250.59801 Z"
       style="fill:#0000ff;stroke:none;stroke-width:0.00512088" />
    <path
       inkscape:connector-curvature="0"
       id="path2733"
       d="m 263.74675,72.218975 c 4.7379,4.591784 8.86248,8.879908 12.1694,13.630579 9.21603,13.252858 12.32064,27.644576 7.16132,39.287626 -10.24107,24.63299 -14.17528,30.88508 -14.17528,50.50042 h 7.28146 c 0.45711,-21.57625 9.82393,-36.01982 23.74567,-40.35441 6.12657,-2.05319 14.07681,-1.03618 21.36215,5.47544 9.01756,8.05782 11.64373,30.25693 -14.82967,34.52686 2.80257,-3.61821 2.56646,-11.54071 -3.03906,-14.33684 -4.28622,-1.8606 -9.12609,-1.13279 -11.38861,0.4676 -3.63958,1.91111 -7.14618,8.0282 -7.14618,14.22135 l 12.57144,-0.0136 v 12.19008 l -26.09347,-0.0136 c 0.33884,6.27026 4.28042,11.29329 11.6061,14.08808 -0.94674,2.64194 -5.36479,8.02785 -11.43203,7.66361 -1.19524,5.69763 -2.33774,8.89807 -7.79324,14.07627 -5.4551,-5.1782 -6.59451,-8.37864 -7.79284,-14.07627 -6.07074,0.36424 -10.48996,-5.02167 -11.43204,-7.66361 7.32725,-2.79479 11.2665,-7.81782 11.60533,-14.08808 l -26.0892,0.0136 -0.004,-12.19008 12.57144,0.0136 c 0,-6.19315 -3.50505,-12.31024 -7.15044,-14.22135 -2.26174,-1.60039 -7.10044,-2.3282 -11.38434,-0.4676 -5.60552,2.79613 -5.84201,10.71863 -3.04334,14.33684 -26.47377,-4.26993 -23.84527,-26.46904 -14.8293,-34.52686 7.28886,-6.51162 15.23561,-7.52863 21.36412,-5.47544 13.92366,4.33459 23.28973,18.77816 23.74411,40.35441 h 7.28069 c 0,-19.61534 -3.92994,-25.86743 -14.17178,-50.50042 -5.15697,-11.64305 -2.0582,-26.034768 7.16207,-39.287626 3.30306,-4.750671 7.42686,-9.038795 12.16901,-13.630579 z"
       style="fill:#ffff00;stroke:none;stroke-width:0.00512088" />
    <path
       inkscape:connector-curvature="0"
       id="path2691"
       d="M 527.11267,-5.3035134 H 1003.9796 V 147.54034 H 527.11267 Z"
       style="fill:#ff0000;stroke:none;stroke-width:0.00532901" />
    <path
       inkscape:connector-curvature="0"
       id="path2693"
       d="M 527.11267,147.54054 H 1003.9796 V 300.38442 H 527.11267 Z"
       style="fill:#00ff00;stroke:none;stroke-width:0.00532901" />
    <path
       inkscape:connector-curvature="0"
       style="fill:#000000;stroke:#64655f;stroke-width:1.83972692;stroke-miterlimit:4;stroke-dasharray:none;stroke-opacity:1"
       d="m 670.88473,103.40677 v 45.26412 43.06699 c 0.0639,0.33677 0.52164,0.46429 1.22528,0.25473 8.7638,-2.06587 12.30051,-6.60502 12.33561,-12.78476 l -0.19865,-62.7138 h 53.77995 l 5.56344,-13.08728 z"
       id="path3197" />
    <path
       inkscape:connector-curvature="0"
       style="fill:#000000;stroke:#64655f;stroke-width:1.83972692;stroke-miterlimit:4;stroke-dasharray:none;stroke-opacity:1"
       d="m 689.89543,177.67371 c -0.77314,-0.0174 -1.28972,-0.1346 -1.34798,-0.43194 v -56.90003 h 49.48386 l -0.004,13.08335 h -36.25858 c 0,11.23206 0,22.46377 0,33.69585 -1.5782,5.9857 -5.97553,9.67843 -11.8735,10.55277 z"
       id="path3193" />
    <path
       inkscape:connector-curvature="0"
       style="fill:#000000;stroke:#64655f;stroke-width:1.83972692;stroke-miterlimit:4;stroke-dasharray:none;stroke-opacity:1"
       d="m 738.03131,150.33476 h -18.48599 v 2.90308 c -1.80457,6.12207 -7.07714,10.70463 -13.14989,10.45424 -0.19726,-0.006 -0.36112,-0.0631 -0.3506,-0.46938 v -25.66283 h 31.98648 l -0.0103,12.80593"
       id="path2699" />
    <path
       inkscape:connector-curvature="0"
       style="fill:#000000;stroke:#64655f;stroke-width:1.83972692;stroke-miterlimit:4;stroke-dasharray:none;stroke-opacity:1"
       d="m 765.58959,125.43896 c 3.2357,0.0193 6.45316,-2.02977 7.51054,-6.03094 1.58874,7.00415 10.39217,8.56653 14.24835,1.47871 v 26.90972 c -8.91049,-6.49526 -15.99184,-5.27132 -21.81191,1.2344 -5.8197,-6.50572 -12.90105,-7.72966 -21.81187,-1.2344 v -26.90972 c 3.85651,7.08782 12.65996,5.52544 14.24834,-1.47871 1.06299,4.02242 4.36398,6.10719 7.61655,6.03094 z"
       id="path2701" />
    <path
       inkscape:connector-curvature="0"
       style="fill:#000000;stroke:#64655f;stroke-width:1.83972692;stroke-miterlimit:4;stroke-dasharray:none;stroke-opacity:1"
       d="m 767.70893,179.51721 h 18.03678 v -23.20416 c -1.79542,-9.15945 -15.77179,-10.25988 -18.03782,0 z"
       id="path2703" />
    <path
       inkscape:connector-curvature="0"
       style="fill:#000000;stroke:#64655f;stroke-width:1.83972692;stroke-miterlimit:4;stroke-dasharray:none;stroke-opacity:1"
       d="m 745.34218,179.51721 h 18.03679 v -23.20416 c -1.79542,-9.15945 -15.77214,-10.25988 -18.03783,0 z"
       id="path2705" />
    <path
       inkscape:connector-curvature="0"
       style="fill:#000000;stroke:#64655f;stroke-width:1.83972692;stroke-miterlimit:4;stroke-dasharray:none;stroke-opacity:1"
       d="m 790.56207,182.3562 h -49.68109 l -6.03029,8.26956 c -0.48674,0.88312 -0.66854,1.79085 -0.64186,2.71513 0.28217,2.57645 1.51502,3.85166 3.33748,4.32007 4.68581,0.63306 7.12453,-0.73463 9.37021,-4.1655 0.71732,-0.60237 1.37466,-0.53959 1.90108,-5.1e-4 2.36149,3.85201 4.72334,5.45693 7.0845,5.52408 4.45419,-0.002 6.00256,-1.77804 8.27421,-5.41543 1.03144,-0.77817 2.06321,-0.73092 3.09462,0 2.26571,3.63739 3.81408,5.41273 8.26828,5.41543 2.3615,-0.0672 4.723,-1.67207 7.08486,-5.52408 0.52606,-0.53891 1.18337,-0.60168 1.90072,5.1e-4 2.24568,3.43087 4.68439,4.79856 9.37019,4.1655 1.82246,-0.46841 3.05533,-1.74362 3.3375,-4.32007 0.0266,-0.92428 -0.1552,-1.83201 -0.6419,-2.71513 z"
       id="path2707" />
    <path
       inkscape:connector-curvature="0"
       style="fill:#000000;stroke:#64655f;stroke-width:1.83972692;stroke-miterlimit:4;stroke-dasharray:none;stroke-opacity:1"
       d="m 772.90782,203.83226 c 4.08605,1.29616 7.65901,0.45253 10.71818,-2.53021 l 9.37058,15.92231 c 0.94124,3.94953 -0.51345,6.82967 -4.36435,8.63975 -4.83497,1.29616 -8.30089,-0.0412 -10.39742,-4.01127 z"
       id="path2709" />
    <path
       inkscape:connector-curvature="0"
       style="fill:#000000;stroke:#64655f;stroke-width:1.83972692;stroke-miterlimit:4;stroke-dasharray:none;stroke-opacity:1"
       d="m 758.5005,203.83226 c -4.0864,1.29616 -7.65902,0.45253 -10.7182,-2.53021 l -9.37056,15.92231 c -0.94124,3.94953 0.51342,6.82967 4.36434,8.63975 4.83495,1.29616 8.30054,-0.0412 10.39743,-4.01127 z"
       id="path2711" />
    <path
       inkscape:connector-curvature="0"
       style="fill:#000000;stroke:#64655f;stroke-width:1.83972692;stroke-miterlimit:4;stroke-dasharray:none;stroke-opacity:1"
       d="m 789.01722,202.4747 c 5.51965,1.81009 9.92681,0.32901 13.22113,-4.44356 l 12.51538,17.77356 c 0.46394,4.11048 -0.18563,7.28591 -2.88793,8.51659 -3.5849,1.62247 -6.89853,1.38086 -9.884,-1.11088 z"
       id="path2713" />
    <path
       inkscape:connector-curvature="0"
       style="fill:#000000;stroke:#64655f;stroke-width:1.83972692;stroke-miterlimit:4;stroke-dasharray:none;stroke-opacity:1"
       d="m 742.39075,202.4747 c -5.5193,1.81009 -9.92648,0.32901 -13.22113,-4.44356 l -12.51539,17.77356 c -0.46394,4.11048 0.18564,7.28591 2.88793,8.51659 3.5849,1.62247 6.8985,1.38086 9.88401,-1.11088 z"
       id="path2715" />
    <path
       inkscape:connector-curvature="0"
       style="fill:#000000;stroke:#64655f;stroke-width:1.83972692;stroke-miterlimit:4;stroke-dasharray:none;stroke-opacity:1"
       d="m 765.57132,225.6792 c 4.97008,0 6.75217,-2.79749 6.46264,-5.67796 l -3.08058,-17.40304 c -0.47272,-1.9093 -1.98073,-2.96247 -3.38206,-2.96247 -1.40132,0 -2.90932,1.05317 -3.38205,2.96247 l -3.08059,17.40304 c -0.28917,2.88047 1.49291,5.67796 6.46264,5.67796 z"
       id="path2717" />
    <path
       inkscape:connector-curvature="0"
       style="fill:#000000;stroke:#64655f;stroke-width:1.83972692;stroke-miterlimit:4;stroke-dasharray:none;stroke-opacity:1"
       d="m 760.70761,68.73838 c -3.03426,0.505501 -5.35376,2.118703 -6.80528,5.062958 l -9.02405,40.917622 c 3.66212,7.21031 7.30541,5.40004 10.92822,1.09856 3.62243,-4.30082 6.70509,3.64262 9.78568,3.56637 3.06445,0.0193 6.07334,-7.87562 9.66981,-3.56637 3.59613,4.30959 7.27627,6.11697 10.92819,-0.9712 l -8.97436,-30.982751 c 9.6099,-0.506517 17.33449,1.0677 22.31999,7.307853 0.48362,-0.0631 0.93566,-0.290598 1.29151,-0.891591 l -7.11988,-13.88333 c -1.42448,-1.557338 -3.1134,-2.567483 -5.26539,-2.595163 h -12.71644 c -1.32938,-2.697248 -3.68504,-4.543279 -6.8053,-5.062958 z m 6.77217,6.671004 c 2.2506,0 4.07324,1.060253 4.07324,2.372265 0,1.312014 -1.82264,2.372267 -4.07324,2.372267 -2.25026,0 -4.07324,-1.060259 -4.07324,-2.372267 0,-1.312007 1.82298,-2.372265 4.07324,-2.372265 z"
       id="path4238" />
    <path
       inkscape:connector-curvature="0"
       style="fill:#000000;stroke:#64655f;stroke-width:1.83972692;stroke-miterlimit:4;stroke-dasharray:none;stroke-opacity:1"
       d="m 787.5018,103.32717 5.56342,13.1032 h 53.77997 l -0.19866,62.71379 c 0.0348,6.18009 3.57184,10.7189 12.33561,12.78476 0.70401,0.2099 1.16142,0.082 1.22529,-0.25473 v -43.0829 -45.26412 z"
       id="path3206" />
    <path
       inkscape:connector-curvature="0"
       style="fill:#000000;stroke:#64655f;stroke-width:1.83972692;stroke-miterlimit:4;stroke-dasharray:none;stroke-opacity:1"
       d="m 841.19668,177.60419 c 0.77314,-0.0174 1.28937,-0.13498 1.34763,-0.43193 V 120.27224 H 793.0608 l 0.004,13.08333 h 36.25782 c 0,11.23171 0,22.46378 0,33.69551 1.57783,5.98572 5.97518,9.67845 11.87349,10.55311 z"
       id="path3202" />
    <path
       inkscape:connector-curvature="0"
       style="fill:#000000;stroke:#64655f;stroke-width:1.83972692;stroke-miterlimit:4;stroke-dasharray:none;stroke-opacity:1"
       d="m 793.0608,150.2649 h 18.48565 v 2.90342 c 1.80491,6.12172 7.07715,10.70465 13.15024,10.45425 0.19725,-0.006 0.36077,-0.0631 0.35024,-0.46938 V 137.49036 H 793.0608 l 0.0103,12.80558"
       id="path2721" />
    <path
       inkscape:connector-curvature="0"
       style="fill:#fff100;stroke:#000000;stroke-width:4.947227;stroke-linejoin:round;stroke-miterlimit:4"
       d="m 527.11267,300.38442 -8.10044,-113.82402 -22.81957,5.66504 7.49894,-66.72926 -21.97442,5.45524 2.03939,-126.7664081 59.16189,-14.6871699 -19.41696,109.071834 19.4389,-4.825783 -14.54133,71.952567 22.8196,-5.66505 z"
       stroke-miterlimit="4"
       id="path375" />
  </g>
</svg>
